<svg height="259" node-id="1" sillyvg="true" template-height="259" template-width="375" version="1.1" viewBox="0 0 375 259" width="375" xmlns="http://www.w3.org/2000/svg" xmlns:xlink="http://www.w3.org/1999/xlink"><defs node-id="70"><linearGradient gradientUnits="objectBoundingBox" id="linearGradient-3" node-id="8" spreadMethod="pad" x1="0.5" x2="0.5" y1="0" y2="0.6936233"><stop offset="0" stop-color="#fff6f3" stop-opacity="0.74543816"></stop><stop offset="1" stop-color="#fff5f3" stop-opacity="0"></stop></linearGradient><linearGradient gradientUnits="objectBoundingBox" id="linearGradient-4" node-id="11" spreadMethod="pad" x1="0.5" x2="0.5" y1="0" y2="1.2401212"><stop offset="0" stop-color="#ffe3dc" stop-opacity="0.9032998"></stop><stop offset="1" stop-color="#fff5f3" stop-opacity="0.23049606"></stop></linearGradient><linearGradient gradientUnits="objectBoundingBox" id="linearGradient-5" node-id="14" spreadMethod="pad" x1="0.5" x2="0.5" y1="0" y2="1.2401212"><stop offset="0" stop-color="#ffe3dc" stop-opacity="0.9032998"></stop><stop offset="1" stop-color="#fff5f3" stop-opacity="0.23049606"></stop></linearGradient><linearGradient gradientUnits="objectBoundingBox" id="linearGradient-6" node-id="17" spreadMethod="pad" x1="0.5512149" x2="0.5512149" y1="0.11018294" y2="0.8734491"><stop offset="0" stop-color="#ffe7df"></stop><stop offset="1" stop-color="#ffd7cf"></stop></linearGradient><linearGradient gradientUnits="objectBoundingBox" id="linearGradient-7" node-id="20" spreadMethod="pad" x1="0.5512149" x2="0.5512149" y1="0.11018294" y2="0.8734491"><stop offset="0" stop-color="#fff1ed"></stop><stop offset="1" stop-color="#ffd7cf"></stop></linearGradient><clipPath id="mask-2" node-id="29"><path d="M 0.00 -22.00 L 375.00 -22.00 L 375.00 259.00 L 0.00 259.00 Z" fill="#000000" fill-rule="evenodd" node-id="105" stroke="none" target-height="281" target-width="375" target-x="0" target-y="-22"></path></clipPath></defs><g node-id="122"><g node-id="123"><g node-id="124"><g node-id="125"><g node-id="128"><g node-id="136"><path d="M 0.00 -22.00 L 375.00 -22.00 L 375.00 259.00 L 0.00 259.00 Z" fill="#ffffff" fill-opacity="0" fill-rule="evenodd" group-id="1,2,3,4,7,15" node-id="117" stroke="none" target-height="281" target-width="375" target-x="0" target-y="-22"></path></g><g clip-path="url(#mask-2)" group-id="1,2,3,4,7,16" node-id="120"><path d="M 407.00 260.00 L 406.67 264.48 L 405.75 268.89 L 404.22 273.27 L 402.04 277.65 L 399.16 282.06 L 395.98 286.03 L 392.23 289.98 L 387.87 293.95 L 382.82 297.92 L 377.03 301.89 L 369.83 306.22 L 361.76 310.47 L 352.75 314.63 L 342.71 318.69 L 332.79 322.22 L 322.10 325.57 L 310.62 328.72 L 298.29 331.67 L 286.11 334.18 L 273.33 336.41 L 259.92 338.37 L 245.85 340.04 L 231.93 341.30 L 217.58 342.23 L 202.77 342.80 L 187.50 343.00 L 172.23 342.80 L 157.42 342.23 L 143.07 341.30 L 129.15 340.04 L 115.08 338.37 L 101.67 336.41 L 88.89 334.18 L 76.71 331.67 L 64.38 328.72 L 52.90 325.57 L 42.21 322.22 L 32.29 318.69 L 22.25 314.63 L 13.24 310.47 L 5.17 306.22 L -2.03 301.89 L -7.82 297.92 L -12.87 293.95 L -17.23 289.98 L -20.98 286.03 L -24.16 282.06 L -27.04 277.65 L -29.22 273.27 L -30.75 268.89 L -31.67 264.48 L -32.00 260.00 L -31.67 255.52 L -30.75 251.11 L -29.22 246.73 L -27.04 242.35 L -24.16 237.94 L -20.98 233.97 L -17.23 230.02 L -12.87 226.05 L -7.82 222.08 L -2.03 218.11 L 5.17 213.78 L 13.24 209.53 L 22.25 205.37 L 32.29 201.31 L 42.21 197.78 L 52.90 194.43 L 64.38 191.28 L 76.71 188.33 L 88.89 185.82 L 101.67 183.59 L 115.08 181.63 L 129.15 179.96 L 143.07 178.70 L 157.42 177.77 L 172.23 177.20 L 187.50 177.00 L 202.77 177.20 L 217.58 177.77 L 231.93 178.70 L 245.85 179.96 L 259.92 181.63 L 273.33 183.59 L 286.11 185.82 L 298.29 188.33 L 310.62 191.28 L 322.10 194.43 L 332.79 197.78 L 342.71 201.31 L 352.75 205.37 L 361.76 209.53 L 369.83 213.78 L 377.03 218.11 L 382.82 222.08 L 387.87 226.05 L 392.23 230.02 L 395.98 233.97 L 399.16 237.94 L 402.04 242.35 L 404.22 246.73 L 405.75 251.11 L 406.67 255.52 L 407.00 260.00 Z" fill="url(#linearGradient-3)" fill-rule="evenodd" group-id="1,2,3,4,7,16" id="椭圆形" node-id="32" stroke="none" target-height="166" target-width="439" target-x="-32" target-y="177"></path></g></g><g node-id="129"><path d="M 44.50 29.00 L 69.24 29.00 L 69.24 28.97 L 69.99 29.00 L 71.80 28.84 L 73.46 28.39 L 75.00 27.66 L 77.02 26.12 L 78.59 24.13 L 79.34 22.60 L 79.81 20.95 L 80.00 19.14 L 79.86 17.33 L 79.43 15.66 L 78.72 14.11 L 77.21 12.08 L 75.24 10.48 L 73.72 9.72 L 72.07 9.22 L 70.27 9.01 L 69.72 7.16 L 68.87 5.44 L 67.33 3.44 L 65.52 1.91 L 63.39 0.79 L 61.08 0.15 L 58.71 0.02 L 56.22 0.41 L 53.89 1.36 L 51.93 2.70 L 50.28 4.45 L 49.04 6.50 L 48.28 8.75 L 48.00 11.25 L 48.06 12.49 L 46.32 11.94 L 44.50 11.75 L 42.82 11.92 L 41.21 12.43 L 39.77 13.23 L 38.51 14.30 L 37.46 15.60 L 36.68 17.07 L 36.17 18.75 L 36.00 20.50 L 36.17 22.18 L 36.68 23.79 L 37.47 25.23 L 38.51 26.49 L 39.77 27.53 L 41.21 28.32 L 42.82 28.83 L 44.50 29.00 Z M 53.22 6.21 L 53.58 6.88 L 53.36 7.61 L 52.63 8.68 L 52.03 9.16 L 51.27 9.07 L 50.80 8.48 L 50.88 7.71 L 51.81 6.35 L 52.49 5.99 L 53.22 6.21 L 53.22 6.21 Z M 58.86 5.01 L 57.17 5.21 L 55.59 5.80 L 55.08 5.92 L 54.58 5.77 L 54.23 5.38 L 54.12 4.88 L 54.28 4.38 L 54.66 4.03 L 56.70 3.26 L 58.87 3.01 L 59.37 3.14 L 59.73 3.51 L 59.87 4.01 L 59.73 4.51 L 59.37 4.87 L 58.87 5.01 L 58.86 5.01 Z" fill="url(#linearGradient-4)" fill-rule="evenodd" group-id="1,2,3,4,8" id="形状" node-id="34" stroke="none" target-height="28.98" target-width="44" target-x="36" target-y="0.02"></path></g><g node-id="130"><path d="M 337.38 50.00 L 306.45 50.00 L 306.45 49.97 L 305.51 50.00 L 303.25 49.80 L 301.17 49.24 L 299.25 48.34 L 297.50 47.13 L 296.01 45.67 L 294.77 43.95 L 293.83 42.06 L 293.24 40.00 L 293.00 37.76 L 293.18 35.51 L 293.71 33.44 L 294.59 31.52 L 295.79 29.77 L 297.24 28.28 L 298.95 27.01 L 300.85 26.06 L 302.91 25.45 L 305.17 25.18 L 305.85 22.89 L 306.91 20.75 L 308.13 19.05 L 309.53 17.60 L 311.11 16.37 L 313.76 14.99 L 316.64 14.19 L 318.64 14.00 L 320.66 14.11 L 322.72 14.51 L 324.70 15.22 L 326.48 16.17 L 328.09 17.36 L 330.15 19.52 L 331.69 22.07 L 332.41 23.93 L 332.85 25.89 L 333.00 27.97 L 332.92 29.51 L 335.10 28.82 L 337.38 28.59 L 339.47 28.80 L 341.48 29.44 L 343.29 30.43 L 344.86 31.75 L 346.18 33.36 L 347.16 35.19 L 347.79 37.28 L 348.00 39.45 L 347.79 41.53 L 347.16 43.53 L 346.16 45.32 L 344.86 46.88 L 343.29 48.17 L 341.48 49.16 L 339.47 49.79 L 337.38 50.00 Z M 326.48 21.71 L 326.16 22.09 L 326.02 22.54 L 326.07 23.01 L 326.30 23.45 L 327.21 24.78 L 327.53 25.16 L 327.96 25.37 L 328.43 25.41 L 328.91 25.26 L 329.29 24.94 L 329.50 24.52 L 329.55 24.05 L 329.40 23.58 L 328.24 21.88 L 327.86 21.57 L 327.39 21.43 L 326.91 21.48 L 326.48 21.71 L 326.48 21.71 Z M 319.43 20.21 L 321.53 20.47 L 323.52 21.21 L 324.15 21.35 L 324.77 21.16 L 325.21 20.68 L 325.35 20.05 L 325.15 19.44 L 324.67 19.00 L 322.98 18.30 L 321.24 17.88 L 319.41 17.73 L 318.79 17.90 L 318.33 18.35 L 318.16 18.97 L 318.33 19.59 L 318.79 20.05 L 319.41 20.21 L 319.43 20.21 Z" fill="url(#linearGradient-5)" fill-rule="evenodd" group-id="1,2,3,4,9" id="形状" node-id="36" stroke="none" target-height="36" target-width="55" target-x="293" target-y="14"></path></g><g node-id="131"><path d="M 76.50 204.00 L 78.50 204.00 L 78.85 204.15 L 79.00 204.50 L 79.00 212.50 L 78.85 212.85 L 78.50 213.00 L 76.50 213.00 L 76.15 212.85 L 76.00 212.50 L 76.00 204.50 L 76.15 204.15 L 76.50 204.00 Z" fill="#ffd4ca" fill-rule="evenodd" group-id="1,2,3,4,10" id="矩形" node-id="38" stroke="none" target-height="9" target-width="3" target-x="76" target-y="204"></path><path d="M 77.00 179.00 L 77.00 208.00 L 65.00 196.43 Z" fill="#ffd4ca" fill-rule="evenodd" group-id="1,2,3,4,10" id="三角形" node-id="39" stroke="none" target-height="29" target-width="12" target-x="65" target-y="179"></path><g node-id="138"><path d="M 77.00 179.00 L 77.00 208.00 L 89.00 196.43 Z" fill="#ffe0d9" fill-rule="evenodd" group-id="1,2,3,4,10,17" id="三角形" node-id="40" stroke="none" target-height="29" target-width="12" target-x="77" target-y="179"></path></g></g><g node-id="132"><path d="M 292.50 195.00 L 293.50 195.00 L 293.85 195.15 L 294.00 195.50 L 294.00 201.50 L 293.85 201.85 L 293.50 202.00 L 292.50 202.00 L 292.15 201.85 L 292.00 201.50 L 292.00 195.50 L 292.15 195.15 L 292.50 195.00 Z" fill="#ffd4ca" fill-rule="evenodd" group-id="1,2,3,4,11" id="矩形" node-id="42" stroke="none" target-height="7" target-width="2" target-x="292" target-y="195"></path><path d="M 293.00 176.00 L 293.00 198.00 L 284.00 189.22 Z" fill="#ffd4ca" fill-rule="evenodd" group-id="1,2,3,4,11" id="三角形" node-id="43" stroke="none" target-height="22" target-width="9" target-x="284" target-y="176"></path><g node-id="139"><path d="M 293.00 176.00 L 293.00 198.00 L 302.00 189.22 Z" fill="#ffe0d9" fill-rule="evenodd" group-id="1,2,3,4,11,18" id="三角形" node-id="44" stroke="none" target-height="22" target-width="9" target-x="293" target-y="176"></path></g></g><g node-id="133"><path d="M 36.50 232.00 L 37.50 232.00 L 37.85 232.15 L 38.00 232.50 L 38.00 238.50 L 37.85 238.85 L 37.50 239.00 L 36.50 239.00 L 36.15 238.85 L 36.00 238.50 L 36.00 232.50 L 36.15 232.15 L 36.50 232.00 Z" fill="#ffd4ca" fill-rule="evenodd" group-id="1,2,3,4,12" id="矩形" node-id="46" stroke="none" target-height="7" target-width="2" target-x="36" target-y="232"></path><path d="M 37.00 213.00 L 37.00 235.00 L 28.00 226.22 Z" fill="#ffd4ca" fill-rule="evenodd" group-id="1,2,3,4,12" id="三角形" node-id="47" stroke="none" target-height="22" target-width="9" target-x="28" target-y="213"></path><g node-id="140"><path d="M 37.00 213.00 L 37.00 235.00 L 46.00 226.22 Z" fill="#ffe0d9" fill-rule="evenodd" group-id="1,2,3,4,12,19" id="三角形" node-id="48" stroke="none" target-height="22" target-width="9" target-x="37" target-y="213"></path></g></g><g node-id="134"><path d="M 86.50 202.00 L 88.50 202.00 L 88.85 202.15 L 89.00 202.50 L 89.00 207.50 L 88.85 207.85 L 88.50 208.00 L 86.50 208.00 L 86.15 207.85 L 86.00 207.50 L 86.00 202.50 L 86.15 202.15 L 86.50 202.00 Z" fill="#ffd4ca" fill-rule="evenodd" group-id="1,2,3,4,13" id="矩形" node-id="50" stroke="none" target-height="6" target-width="3" target-x="86" target-y="202"></path><path d="M 87.00 186.00 L 87.00 204.00 L 79.00 196.82 Z" fill="#ffd4ca" fill-rule="evenodd" group-id="1,2,3,4,13" id="三角形" node-id="51" stroke="none" target-height="18" target-width="8" target-x="79" target-y="186"></path><g node-id="141"><path d="M 87.00 186.00 L 87.00 204.00 L 95.00 196.82 Z" fill="#ffe0d9" fill-rule="evenodd" group-id="1,2,3,4,13,20" id="三角形" node-id="52" stroke="none" target-height="18" target-width="8" target-x="87" target-y="186"></path></g></g><g node-id="135"><path d="M 346.50 230.00 L 347.50 230.00 L 347.85 230.15 L 348.00 230.50 L 348.00 234.50 L 347.85 234.85 L 347.50 235.00 L 346.50 235.00 L 346.15 234.85 L 346.00 234.50 L 346.00 230.50 L 346.15 230.15 L 346.50 230.00 Z" fill="#ffd4ca" fill-rule="evenodd" group-id="1,2,3,4,14" id="矩形" node-id="54" stroke="none" target-height="5" target-width="2" target-x="346" target-y="230"></path><path d="M 347.00 218.00 L 347.00 232.00 L 341.00 226.42 Z" fill="#ffd4ca" fill-rule="evenodd" group-id="1,2,3,4,14" id="三角形" node-id="55" stroke="none" target-height="14" target-width="6" target-x="341" target-y="218"></path><g node-id="142"><path d="M 347.00 218.00 L 347.00 232.00 L 353.00 226.42 Z" fill="#ffe0d9" fill-rule="evenodd" group-id="1,2,3,4,14,21" id="三角形" node-id="56" stroke="none" target-height="14" target-width="6" target-x="347" target-y="218"></path></g></g></g><path d="M 120.00 78.00 L 255.00 78.00 L 255.00 205.00 L 120.00 205.00 Z" fill="url(#linearGradient-6)" fill-rule="evenodd" group-id="1,2,3" id="矩形" node-id="57" stroke="none" target-height="127" target-width="135" target-x="120" target-y="78"></path><path d="M 188.00 105.55 L 188.00 96.50 L 187.88 95.91 L 187.57 95.44 L 187.09 95.12 L 186.51 95.00 L 185.92 95.12 L 185.45 95.44 L 185.13 95.91 L 185.01 96.50 L 185.01 106.91 L 185.08 107.53 L 185.39 108.06 L 185.90 108.42 L 186.50 108.55 L 192.80 108.55 L 193.39 108.43 L 193.86 108.11 L 194.18 107.64 L 194.30 107.05 L 194.18 106.46 L 193.86 105.99 L 193.39 105.67 L 192.80 105.55 L 188.00 105.55 L 188.00 105.55 Z M 188.00 122.00 L 184.71 121.69 L 181.70 120.87 L 178.92 119.54 L 176.39 117.75 L 174.25 115.61 L 172.46 113.08 L 171.13 110.30 L 170.31 107.29 L 170.00 104.00 L 170.31 100.71 L 171.13 97.70 L 172.46 94.92 L 174.25 92.39 L 176.39 90.25 L 178.92 88.46 L 181.70 87.13 L 184.71 86.31 L 188.00 86.00 L 191.29 86.31 L 194.30 87.13 L 197.08 88.46 L 199.61 90.25 L 201.75 92.39 L 203.54 94.92 L 204.87 97.70 L 205.69 100.71 L 206.00 104.00 L 205.69 107.29 L 204.87 110.30 L 203.54 113.08 L 201.75 115.61 L 199.61 117.75 L 197.08 119.54 L 194.30 120.87 L 191.29 121.69 L 188.00 122.00 Z" fill="#fff5f3" fill-rule="nonzero" group-id="1,2,3,5" id="形状" node-id="59" stroke="none" target-height="36" target-width="36" target-x="170" target-y="86"></path><path d="M 188.00 162.00 L 191.10 162.29 L 193.95 163.06 L 196.58 164.32 L 198.97 166.01 L 200.99 168.03 L 202.68 170.42 L 203.94 173.05 L 204.71 175.90 L 205.00 179.00 L 205.00 205.00 L 205.00 205.00 L 171.00 205.00 L 171.00 179.00 L 171.29 175.90 L 172.06 173.05 L 173.32 170.42 L 175.01 168.03 L 177.03 166.01 L 179.42 164.32 L 182.05 163.06 L 184.90 162.29 L 188.00 162.00 Z" fill="#fff5f3" fill-rule="evenodd" group-id="1,2,3" id="矩形" node-id="60" stroke="none" target-height="43" target-width="34" target-x="171" target-y="162"></path><path d="M 108.00 205.00 L 267.00 205.00 L 267.00 217.00 L 108.00 217.00 Z" fill="#fedad2" fill-rule="evenodd" group-id="1,2,3" id="矩形" node-id="61" stroke="none" target-height="12" target-width="159" target-x="108" target-y="205"></path><path d="M 130.00 58.00 L 245.00 58.00 L 255.00 78.00 L 120.00 78.00 Z" fill="url(#linearGradient-7)" fill-rule="evenodd" group-id="1,2,3" id="矩形" node-id="62" stroke="none" target-height="20" target-width="135" target-x="120" target-y="58"></path><path d="M 208.26 36.00 L 206.36 35.89 L 204.66 35.58 L 203.06 35.09 L 201.76 34.50 L 200.49 33.91 L 198.91 33.42 L 197.22 33.11 L 195.32 33.00 L 193.43 33.18 L 191.72 33.64 L 188.82 34.94 L 188.82 51.38 L 191.67 50.08 L 193.39 49.62 L 195.32 49.44 L 197.25 49.55 L 198.95 49.86 L 200.52 50.35 L 201.82 50.94 L 203.08 51.52 L 204.67 52.02 L 206.38 52.32 L 208.32 52.44 L 210.24 52.24 L 211.95 51.77 L 214.82 50.44 L 214.82 34.00 L 211.91 35.30 L 210.18 35.80 L 208.26 36.00 Z M 186.45 33.00 L 185.87 33.11 L 185.42 33.41 L 185.12 33.86 L 185.01 34.44 L 185.01 66.50 L 185.12 67.07 L 185.42 67.52 L 185.87 67.82 L 186.45 67.94 L 187.02 67.82 L 187.47 67.52 L 187.77 67.07 L 187.88 66.50 L 187.88 34.44 L 187.77 33.86 L 187.47 33.41 L 187.02 33.11 L 186.45 33.00 Z" fill="#ffd4ca" fill-rule="nonzero" group-id="1,2,3,6" id="形状" node-id="64" stroke="none" target-height="34.940002" target-width="29.810013" target-x="185.01" target-y="33"></path><path d="M 136.00 101.00 L 152.00 101.00 L 153.57 101.32 L 154.83 102.17 L 155.68 103.43 L 156.00 105.00 L 156.00 121.00 L 155.68 122.57 L 154.83 123.83 L 153.57 124.68 L 152.00 125.00 L 136.00 125.00 L 134.43 124.68 L 133.17 123.83 L 132.32 122.57 L 132.00 121.00 L 132.00 105.00 L 132.32 103.43 L 133.17 102.17 L 134.43 101.32 L 136.00 101.00 Z" fill="#fff5f3" fill-rule="evenodd" group-id="1,2,3" id="矩形" node-id="65" stroke="none" target-height="24" target-width="24" target-x="132" target-y="101"></path><path d="M 223.00 101.00 L 239.00 101.00 L 240.57 101.32 L 241.83 102.17 L 242.68 103.43 L 243.00 105.00 L 243.00 121.00 L 242.68 122.57 L 241.83 123.83 L 240.57 124.68 L 239.00 125.00 L 223.00 125.00 L 221.43 124.68 L 220.17 123.83 L 219.32 122.57 L 219.00 121.00 L 219.00 105.00 L 219.32 103.43 L 220.17 102.17 L 221.43 101.32 L 223.00 101.00 Z" fill="#fff5f3" fill-rule="evenodd" group-id="1,2,3" id="矩形备份-3" node-id="66" stroke="none" target-height="24" target-width="24" target-x="219" target-y="101"></path><path d="M 136.00 139.00 L 152.00 139.00 L 153.57 139.32 L 154.83 140.17 L 155.68 141.43 L 156.00 143.00 L 156.00 159.00 L 155.68 160.57 L 154.83 161.83 L 153.57 162.68 L 152.00 163.00 L 136.00 163.00 L 134.43 162.68 L 133.17 161.83 L 132.32 160.57 L 132.00 159.00 L 132.00 143.00 L 132.32 141.43 L 133.17 140.17 L 134.43 139.32 L 136.00 139.00 Z" fill="#fff5f3" fill-rule="evenodd" group-id="1,2,3" id="矩形备份-2" node-id="67" stroke="none" target-height="24" target-width="24" target-x="132" target-y="139"></path><path d="M 223.00 139.00 L 239.00 139.00 L 240.57 139.32 L 241.83 140.17 L 242.68 141.43 L 243.00 143.00 L 243.00 159.00 L 242.68 160.57 L 241.83 161.83 L 240.57 162.68 L 239.00 163.00 L 223.00 163.00 L 221.43 162.68 L 220.17 161.83 L 219.32 160.57 L 219.00 159.00 L 219.00 143.00 L 219.32 141.43 L 220.17 140.17 L 221.43 139.32 L 223.00 139.00 Z" fill="#fff5f3" fill-rule="evenodd" group-id="1,2,3" id="矩形备份-4" node-id="68" stroke="none" target-height="24" target-width="24" target-x="219" target-y="139"></path></g></g></g></svg>