<svg t="1691584055397" class="icon" viewBox="0 0 1024 1024" version="1.1" xmlns="http://www.w3.org/2000/svg" p-id="914" width="32" height="32"><path d="M339.072 170.666667a40.405333 40.405333 0 0 1 0 80.853333H249.258667a40.405333 40.405333 0 0 0-40.405334 40.405333v89.813334a40.405333 40.405333 0 0 1-80.853333 0V291.925333A121.258667 121.258667 0 0 1 249.258667 170.666667h89.813333z m-170.666667 516.48c22.357333 0 40.448 18.090667 40.448 40.448v89.813333c0 22.314667 18.090667 40.405333 40.405334 40.405333h89.813333a40.405333 40.405333 0 1 1 0 80.853334H249.258667A121.258667 121.258667 0 0 1 128 817.408v-89.813333c0-22.357333 18.090667-40.448 40.405333-40.448zM774.698667 170.666667A121.258667 121.258667 0 0 1 896 291.925333v89.813334a40.405333 40.405333 0 0 1-80.853333 0V291.925333a40.405333 40.405333 0 0 0-40.405334-40.405333h-89.813333a40.405333 40.405333 0 0 1 0-80.853333h89.813333z m80.896 516.48c22.314667 0 40.405333 18.090667 40.405333 40.448v89.813333A121.258667 121.258667 0 0 1 774.741333 938.666667h-89.813333a40.405333 40.405333 0 0 1 0-80.853334h89.813333a40.405333 40.405333 0 0 0 40.405334-40.405333v-89.813333c0-22.357333 18.090667-40.448 40.448-40.448zM845.482667 532.778667a40.405333 40.405333 0 0 1 0 80.853333H178.517333a40.405333 40.405333 0 1 1 0-80.853333h666.965334z"  p-id="915"></path></svg>